<svg width="589" height="133" viewBox="0 0 589 133" fill="none" xmlns="http://www.w3.org/2000/svg">
<path d="M0 51.3V46.5H16.3V51.3H10.8V80.1H5.5V51.3H0Z" fill="white"/>
<path d="M18.6 80.1V46.5H33V51.3H23.9V60.7H31.1V65.5H23.9V75.3H33V80.1H18.6Z" fill="white"/>
<path d="M35 80.1L40.9 62.8L35.4 46.5H40.7L44.7 59L48.8 46.5H53.4L47.9 63L53.8 80.1H48.5L44.4 67.6L40.3 80.1H35Z" fill="white"/>
<path d="M56.9 80.1V46.5H62.2V60.9H68.2V46.5H73.5V80.1H68.2V65.7H62.2V80.1H56.9Z" fill="white"/>
<path d="M76.9 72V54.5C76.9 51.8 77.6 49.7 79 48.3C80.4 46.8 82.4 46.1 84.9 46.1C87.5 46.1 89.5 46.8 90.8 48.3C92.2 49.8 92.9 51.8 92.9 54.5V72C92.9 74.7 92.2 76.8 90.8 78.2C89.4 79.7 87.4 80.4 84.9 80.4C82.3 80.4 80.3 79.7 79 78.2C77.6 76.8 76.9 74.7 76.9 72ZM82.2 72.3C82.2 74.5 83.1 75.6 85 75.6C86.8 75.6 87.7 74.5 87.7 72.3V54.2C87.7 52 86.8 50.9 85 50.9C83.2 50.9 82.2 52 82.2 54.2V72.3Z" fill="white"/>
<path d="M95.9 72V54.5C95.9 51.8 96.6 49.7 97.9 48.3C99.2 46.8 101.2 46.1 103.8 46.1C106.4 46.1 108.4 46.8 109.8 48.3C111.2 49.8 111.9 51.8 111.9 54.5V57.8H106.6V54.2C106.6 52 105.7 50.9 103.9 50.9C102.1 50.9 101.1 52 101.1 54.2V72.3C101.1 74.5 102 75.6 103.9 75.6C105.7 75.6 106.6 74.5 106.6 72.3V67.5H111.9V72C111.9 74.7 111.2 76.8 109.8 78.2C108.4 79.7 106.4 80.4 103.8 80.4C101.2 80.4 99.3 79.7 97.9 78.2C96.6 76.8 95.9 74.7 95.9 72Z" fill="white"/>
<path d="M113.3 51.3V46.5H129.6V51.3H124.1V80.1H118.8V51.3H113.3Z" fill="white"/>
<path d="M131.9 80.1V46.5H139.7C142.3 46.5 144.3 47.2 145.6 48.6C146.9 50 147.6 52.1 147.6 54.8V59.2C147.6 61.9 146.9 64 145.6 65.4C144.3 66.8 142.3 67.5 139.7 67.5H137.2V80.1H131.9ZM137.2 62.6H139.7C140.6 62.6 141.2 62.4 141.6 61.9C142 61.4 142.2 60.6 142.2 59.4V54.4C142.2 53.2 142 52.4 141.6 52C141.2 51.5 140.5 51.3 139.7 51.3H137.2V62.6Z" fill="white"/>
<path d="M150 80.1V46.5H164.4V51.3H155.3V60.7H162.5V65.5H155.3V75.3H164.4V80.1H150Z" fill="white"/>
<path d="M166.2 80.1V75.3C166.8 75.3 167.3 75.3 167.7 75.2C168.1 75.1 168.4 75 168.6 74.7C168.9 74.5 169.1 74.1 169.2 73.7C169.3 73.2 169.4 72.6 169.4 71.8L170 46.4H185.1V80H179.8V51.3H175.2L174.6 71.6C174.5 74.7 173.9 76.8 172.7 78.2C171.5 79.6 169.6 80.2 166.9 80.2L166.2 80.1Z" fill="white"/>
<path d="M189.2 80.1V46.5H194.5V61.1L201.4 46.5H206.7L199.4 61.5L206.7 80.1H201.3L196.2 66.7L194.6 69.8V80.1H189.2Z" fill="white"/>
<path d="M207.7 80.1L213 46.5H221.1L226.4 80.1H221.1L220.2 74H213.7L212.8 80.1H207.7ZM214.5 69.4H219.6L217.1 52.5L214.5 69.4Z" fill="white"/>
<path d="M348.9 51.3V46.5H365.2V51.3H359.7V80.1H354.4V51.3H348.9Z" fill="white"/>
<path d="M367.5 80.1V46.5H381.9V51.3H372.8V60.7H380V65.5H372.8V75.3H381.9V80.1H367.5Z" fill="white"/>
<path d="M384.7 72V54.5C384.7 51.8 385.4 49.7 386.7 48.3C388 46.8 390 46.1 392.6 46.1C395.2 46.1 397.2 46.8 398.6 48.3C400 49.8 400.7 51.8 400.7 54.5V57.8H395.4V54.2C395.4 52 394.5 50.9 392.7 50.9C390.9 50.9 389.9 52 389.9 54.2V72.3C389.9 74.5 390.8 75.6 392.7 75.6C394.5 75.6 395.4 74.5 395.4 72.3V67.5H400.7V72C400.7 74.7 400 76.8 398.6 78.2C397.2 79.6 395.2 80.4 392.6 80.4C390 80.4 388.1 79.7 386.7 78.2C385.3 76.7 384.7 74.7 384.7 72Z" fill="white"/>
<path d="M403.7 80.1V46.5H409V60.9H415V46.5H420.3V80.1H415V65.7H409V80.1H403.7Z" fill="white"/>
<path d="M424.1 80.1V46.5H431.2L436.6 66.6V46.5H441.3V80.1H435.9L429.4 55.8V80.1H424.1Z" fill="white"/>
<path d="M444.2 72V54.5C444.2 51.8 444.9 49.7 446.3 48.3C447.7 46.8 449.7 46.1 452.2 46.1C454.8 46.1 456.8 46.8 458.1 48.3C459.5 49.8 460.2 51.8 460.2 54.5V72C460.2 74.7 459.5 76.8 458.1 78.2C456.7 79.6 454.7 80.4 452.2 80.4C449.6 80.4 447.6 79.7 446.3 78.2C445 76.7 444.2 74.7 444.2 72ZM449.5 72.3C449.5 74.5 450.4 75.6 452.3 75.6C454.1 75.6 455 74.5 455 72.3V54.2C455 52 454.1 50.9 452.3 50.9C450.5 50.9 449.5 52 449.5 54.2V72.3Z" fill="white"/>
<path d="M462.8 72V69.9H468.2V72.3C468.2 74.5 469 75.6 470.7 75.6C472.4 75.6 473.2 74.5 473.2 72.3C473.2 71.4 473 70.5 472.6 69.7C472.2 68.9 471.7 68.1 471.2 67.5C470.6 66.8 470 66.2 469.2 65.5C468.5 64.8 467.7 64.1 467 63.4C466.2 62.7 465.6 61.9 464.9 61.1C464.3 60.3 463.8 59.3 463.4 58.2C463 57.1 462.8 55.9 462.8 54.6C462.8 51.9 463.5 49.8 465 48.4C466.4 46.9 468.4 46.2 470.8 46.2C473.2 46.2 475.1 46.9 476.4 48.4C477.7 49.9 478.4 51.9 478.4 54.6V55.7H473.4V54.3C473.4 52.1 472.5 51 470.7 51C469.8 51 469.2 51.3 468.7 51.8C468.3 52.3 468 53.2 468 54.3C468 55.2 468.2 56.1 468.6 56.9C469 57.7 469.5 58.5 470.1 59.1C470.7 59.8 471.4 60.4 472.1 61.1C472.8 61.8 473.6 62.5 474.3 63.2C475 63.9 475.7 64.7 476.3 65.5C476.9 66.3 477.4 67.3 477.8 68.4C478.2 69.5 478.4 70.7 478.4 72C478.4 74.7 477.7 76.8 476.4 78.2C475.1 79.7 473.2 80.4 470.7 80.4C468.3 80.4 466.3 79.7 464.8 78.2C463.5 76.8 462.8 74.7 462.8 72Z" fill="white"/>
<path d="M480 51.3V46.5H496.3V51.3H490.8V80.1H485.5V51.3H480Z" fill="white"/>
<path d="M498.6 80.1V46.5H506.6C509.3 46.5 511.3 47.1 512.5 48.4C513.8 49.7 514.4 51.6 514.4 54.2V56.8C514.4 60.3 513.3 62.5 511 63.6C512.3 64.1 513.2 65 513.7 66.2C514.2 67.4 514.5 68.9 514.5 70.8V76C514.5 77.9 514.7 79.2 515 80.1H509.7C509.6 79.7 509.5 79.4 509.4 79.2C509.4 79 509.3 78.6 509.2 78.1C509.1 77.6 509.1 76.8 509.1 76V70.7C509.1 69.2 508.8 68.1 508.3 67.4C507.8 66.7 506.9 66.4 505.7 66.4H503.9V80.1H498.6ZM503.9 61.6H506C507 61.6 507.8 61.3 508.4 60.8C508.9 60.3 509.2 59.3 509.2 58V54.7C509.2 53.5 509 52.6 508.6 52.1C508.2 51.5 507.5 51.3 506.6 51.3H504L503.9 61.6Z" fill="white"/>
<path d="M517.9 80.1V46.5H532.3V51.3H523.2V60.7H530.4V65.5H523.2V75.3H532.3V80.1H517.9Z" fill="white"/>
<path d="M535.6 80.1V46.5H540.9V75.3H549.6V80.1H535.6Z" fill="white"/>
<path d="M551.8 80.1V46.5H557.1V61.1L564 46.5H569.3L562 61.5L569.3 80.1H563.9L558.8 66.7L557.2 69.8V80.1H551.8Z" fill="white"/>
<path d="M570.3 80.1L575.6 46.5H583.7L589 80.1H583.7L582.8 74H576.3L575.4 80.1H570.3ZM577.1 69.4H582.2L579.7 52.5L577.1 69.4Z" fill="white"/>
<path fill-rule="evenodd" clip-rule="evenodd" d="M282.1 52.4L292.9 66.2V66.3L291.2 68.4L282.3 79.9L282 80.2L278.9 84.3L278.7 84.5L274.1 90.4L266.3 100.5L262.8 104.9L261.3 106.9H239.6L246.8 97.7L252.4 90.4L257 84.5L262.8 77.1L265.7 73.3L269.5 68.4L271.2 66.3L278.9 56.4L282.1 52.4Z" fill="white"/>
<path fill-rule="evenodd" clip-rule="evenodd" d="M298 59.9L296.3 62.1L293 66.4L287.2 73.8L284 77.9L283.8 78.1L282.4 80L282.1 80.3L279.2 84.1L277.9 85.7L267.9 98.6L266.4 100.5H244.8L251.9 91.3L257.6 84.1L262.2 78.1L265.8 73.4L282.1 52.4L284 50L285.2 48.4L286.5 46.8L287.2 46V45.9L297.9 59.8L298 59.9Z" fill="white"/>
<path fill-rule="evenodd" clip-rule="evenodd" d="M320.1 101.3H298.5L297.2 99.7L293.7 95.2L292.9 94.1L286.3 85.7L282.1 80.3L282 80.2L282.3 79.9L283 79L290.6 69.2L291.2 68.4L292.9 66.3L293 66.4L297.2 71.8L302.7 79L303.7 80.2L306.6 84L307.3 84.9L320.1 101.3Z" fill="white"/>
<path fill-rule="evenodd" clip-rule="evenodd" d="M311 43L308 46.8L305 42.9L297.9 33.9L297.2 32.9L302.8 25.6H324.5L311.2 42.7" fill="white"/>
<path fill-rule="evenodd" clip-rule="evenodd" d="M277.7 46.8L266.9 60.7L262.8 55.5L252.9 42.7L246.8 34.8L239.6 25.6H261.3L262.8 27.6L274.6 42.7L276 44.5L277.7 46.8Z" fill="white"/>
<path fill-rule="evenodd" clip-rule="evenodd" d="M297.3 60.6L294.9 57.5L287.2 47.6L286.8 47.1L287.2 47.6L294.9 57.5L297.3 60.6Z" fill="white"/>
<path fill-rule="evenodd" clip-rule="evenodd" d="M308.1 46.6L297.5 60.6H297.3L294.9 57.5L287.2 47.6L286.8 47.1L286.5 46.6L280.2 38.6L278.9 36.9L262.8 16.2L259.1 11.5L250.5 0.3L250.2 0H271.9L278.9 9L280.8 11.5L289.6 22.8L294.9 29.7L297.3 32.7L298 33.7L305.1 42.7L308.1 46.6Z" fill="white"/>
<path fill-rule="evenodd" clip-rule="evenodd" d="M282.2 91.1L293 105.1L292.6 105.5L291.6 106.9L278.9 123.3L271.5 132.7H249.9L262.8 116L269.9 106.9L278.9 95.4L281.8 91.6L282.2 91.1Z" fill="white"/>
<path fill-rule="evenodd" clip-rule="evenodd" d="M297.2 99.7L293.7 95.2L292.9 94.1L286.3 85.7H286.4L297.2 99.7Z" fill="white"/>
<path fill-rule="evenodd" clip-rule="evenodd" d="M324.4 106.9H302.8L300.9 104.4L298.5 101.3L298 100.8L297.2 99.7L286.4 85.7L286.6 85.5L287.3 84.5L294.9 74.7L297.2 71.8L307.1 84.5L308 85.7L311 89.5L311.7 90.4L324.4 106.9Z" fill="white"/>
<path fill-rule="evenodd" clip-rule="evenodd" d="M324.6 70.8L331.4 79.6H312.2L311 78.1L303.4 68.3L301.6 66L311 54L312.4 52.1L312.7 51.7H332L324.6 61.2L320.9 66L322.7 68.3L324.6 70.8Z" fill="white"/>
<path d="M0.699951 33V26.9H1.69995L3.69995 29.6L5.69995 26.9H6.69995V33H5.69995V28.4L3.99995 30.7H3.39995L1.69995 28.4V33H0.699951Z" fill="white"/>
<path d="M11.3999 33V26.9H15.6999V27.8H12.2999V29.3H15.0999V30.2H12.2999V32.1H15.7999V33H11.3999Z" fill="white"/>
<path d="M19.5 33L22.4 29.8L19.9 26.9H21.1L23.4 29.5V26.9H24.4V29.5L26.7 26.9H27.9L25.3 29.8L28.2 33H26.9L24.3 30.2V33H23.3V30.2L20.7 33H19.5Z" fill="white"/>
<path d="M31.6 34.3V32.1H32.2C32.5 31.6 32.8 31.1 32.9 30.4C33 29.7 33.1 28.8 33.1 27.7V26.9H37.1V32.1H38V34.3H37.1V33H32.5V34.3H31.6ZM36.2 32.1V27.8H34.1C34.1 28.8 34 29.7 33.9 30.4C33.8 31.1 33.6 31.7 33.3 32.2L36.2 32.1Z" fill="white"/>
<path d="M42.3 32.9V32C42.5 32.1 42.7 32.1 43 32.1C43.2 32.1 43.4 32 43.6 31.9C43.8 31.8 43.9 31.5 44.1 31.1L41.7 26.8H42.8L44.6 30.1L46.1 26.8H47.1L44.9 31.6C44.5 32.5 43.9 33 43.1 33C42.8 33.1 42.5 33 42.3 32.9Z" fill="white"/>
<path d="M51.2999 33V26.9H52.2999V29.3H55.4999V26.9H56.4999V33H55.4999V30.2H52.2999V33H51.2999Z" fill="white"/>
<path d="M60.6 33L63.3 26.9H64.2L66.9 33H65.9L65.2 31.5H62.3L61.6 33H60.6ZM62.6 30.6H64.8L63.7 28L62.6 30.6Z" fill="white"/>
<path d="M71.1 33V26.9H73.7C74.3 26.9 74.8 27.1 75.2 27.4C75.6 27.7 75.7 28.2 75.7 28.7C75.7 29.2 75.5 29.7 75.2 30C74.8 30.3 74.3 30.5 73.7 30.5H72V33H71.1ZM72 29.6H73.6C74.3 29.6 74.7 29.3 74.7 28.7C74.7 28.1 74.3 27.8 73.6 27.8H72V29.6Z" fill="white"/>
<path d="M82.9999 33.1C82.0999 33.1 81.3999 32.8 80.7999 32.2C80.1999 31.6 79.8999 30.8 79.8999 29.9C79.8999 29 80.1999 28.3 80.7999 27.7C81.3999 27.1 82.0999 26.8 82.9999 26.8C83.8999 26.8 84.5999 27.1 85.1999 27.7C85.7999 28.3 86.0999 29 86.0999 29.9C86.0999 30.8 85.7999 31.5 85.1999 32.2C84.5999 32.8 83.8999 33.1 82.9999 33.1ZM82.9999 32.2C83.5999 32.2 84.0999 32 84.4999 31.6C84.8999 31.2 85.0999 30.6 85.0999 30C85.0999 29.4 84.8999 28.8 84.4999 28.4C84.0999 28 83.5999 27.7 82.9999 27.7C82.3999 27.7 81.8999 27.9 81.4999 28.4C81.0999 28.8 80.8999 29.4 80.8999 30C80.8999 30.6 81.0999 31.2 81.4999 31.6C81.8999 32 82.3999 32.2 82.9999 32.2Z" fill="white"/>
<path d="M90 34.3V32.1H90.6C90.9 31.6 91.2 31.1 91.3 30.4C91.4 29.7 91.5 28.8 91.5 27.7V26.9H95.5V32.1H96.4V34.3H95.5V33H90.9V34.3H90ZM94.6 32.1V27.8H92.5C92.5 28.8 92.4 29.7 92.3 30.4C92.2 31.1 92 31.7 91.7 32.2L94.6 32.1Z" fill="white"/>
<path d="M100.7 33V26.9H101.7V29.3H104.9V26.9H105.9V33H104.9V30.2H101.7V33H100.7Z" fill="white"/>
<path d="M110.6 33V26.9H111.6V29H113C113.7 29 114.3 29.2 114.7 29.6C115.1 30 115.3 30.5 115.3 31C115.3 31.6 115.1 32.1 114.7 32.4C114.3 32.8 113.7 32.9 113 32.9L110.6 33ZM111.5 32.1H112.8C113.7 32.1 114.2 31.7 114.2 31C114.2 30.3 113.7 29.9 112.8 29.9H111.5V32.1ZM116 33V26.9H117V33H116Z" fill="white"/>
<path d="M121.7 33V26.9H122.7V31.4L126.1 26.9H126.9V33H125.9V28.5L122.5 33H121.7ZM122.8 25.1H123.6C123.6 25.5 123.9 25.8 124.3 25.8C124.8 25.8 125 25.5 125 25.1H125.8C125.8 26 125.1 26.5 124.3 26.5C123.4 26.5 122.8 26 122.8 25.1Z" fill="white"/>
<path d="M139.9 33.2V32.5C138.9 32.5 138.2 32.2 137.7 31.7C137.2 31.2 136.9 30.6 136.9 29.9C136.9 28.6 137.8 27.3 139.9 27.3V26.7H140.9V27.3C142.9 27.4 143.9 28.6 143.9 29.9C143.9 31.2 143 32.5 140.9 32.5V33.2H139.9ZM139.9 28.1C139.2 28.1 138.7 28.3 138.4 28.6C138.1 28.9 137.9 29.4 137.9 29.9C137.9 30.4 138.1 30.8 138.4 31.2C138.7 31.5 139.2 31.7 139.9 31.7V28.1ZM140.9 31.7C141.6 31.7 142.1 31.5 142.4 31.2C142.7 30.9 142.9 30.4 142.9 29.9C142.9 29.4 142.7 29 142.4 28.6C142.1 28.2 141.6 28.1 140.9 28.1V31.7Z" fill="white"/>
<path d="M148.4 33V26.9H152.7V27.8H149.3V29.3H152.1V30.2H149.3V32.1H152.8V33H148.4Z" fill="white"/>
<path d="M158 32.2C157.4 31.6 157.1 30.8 157.1 29.9C157.1 29 157.4 28.2 158 27.6C158.6 27 159.4 26.7 160.3 26.7C160.9 26.7 161.5 26.8 162 27.1V28.1C161.5 27.8 161 27.6 160.4 27.6C159.8 27.6 159.2 27.8 158.8 28.2C158.4 28.6 158.2 29.2 158.2 29.8C158.2 30.4 158.4 31 158.8 31.4C159.2 31.8 159.8 32 160.4 32C161.1 32 161.7 31.8 162.1 31.4V32.4C161.6 32.7 161 32.9 160.3 32.9C159.3 33.1 158.6 32.8 158 32.2Z" fill="white"/>
<path d="M166 26.9H171V27.8H169V33H168V27.8H166V26.9Z" fill="white"/>
<path d="M175.3 33V26.9H176.3V31.4L179.7 26.9H180.5V33H179.5V28.5L176.1 33H175.3Z" fill="white"/>
<path d="M185.2 33V26.9H188C189.1 26.9 189.8 27.5 189.8 28.4C189.8 29 189.5 29.5 189 29.7C189.7 29.8 190.3 30.4 190.3 31.3C190.3 31.8 190.1 32.2 189.7 32.5C189.3 32.8 188.8 33 188.2 33H185.2ZM186.2 29.3H187.8C188.4 29.3 188.8 29 188.8 28.5C188.8 28 188.4 27.7 187.8 27.7H186.2V29.3ZM186.2 32.1H188.1C188.8 32.1 189.3 31.7 189.3 31.1C189.3 30.5 188.9 30.2 188.1 30.2H186.2V32.1Z" fill="white"/>
<path d="M194.2 33L196.9 26.9H197.8L200.5 33H199.5L198.8 31.5H195.9L195.2 33H194.2ZM196.2 30.6H198.4L197.3 28L196.2 30.6Z" fill="white"/>
<path d="M203.9 32.1C204 32.1 204.1 32.1 204.2 32.1C204.6 32.1 204.9 31.9 205.1 31.3C205.3 30.7 205.3 30.1 205.3 28.9V26.8H209.4V32.9H208.4V27.7H206.2V29C206.2 30.4 206.1 31.2 205.8 31.9C205.5 32.6 205 32.9 204.3 32.9C204.1 32.9 204 32.9 203.9 32.9V32.1Z" fill="white"/>
<path d="M214.2 33V26.9H215.2V29H216.8C217.5 29 218.1 29.2 218.5 29.6C218.9 30 219.1 30.5 219.1 31C219.1 31.6 218.9 32.1 218.5 32.4C218.1 32.8 217.5 32.9 216.8 32.9L214.2 33ZM215.2 32.1H216.7C217.6 32.1 218.1 31.7 218.1 31C218.1 30.3 217.6 29.9 216.7 29.9H215.2V32.1Z" fill="white"/>
<path d="M349.7 33V26.9H350.7V33H349.7Z" fill="white"/>
<path d="M357.6 33V26.9H358.4L361.8 31.3V26.9H362.7V33H361.9L358.4 28.6V33H357.6Z" fill="white"/>
<path d="M369.2 26.9H374.2V27.8H372.2V33H371.2V27.8H369.2V26.9Z" fill="white"/>
<path d="M380.6 33V26.9H384.9V27.8H381.5V29.3H384.3V30.2H381.5V32.1H385V33H380.6Z" fill="white"/>
<path d="M391.5 33V26.9H394.3C394.9 26.9 395.4 27.1 395.8 27.4C396.2 27.7 396.3 28.1 396.3 28.7C396.3 29.5 395.8 30.2 395 30.4L396.9 33.1H395.7L393.9 30.5H392.5V33.1H391.5V33ZM392.5 29.5H394.3C395 29.5 395.4 29.2 395.4 28.6C395.4 28 395 27.7 394.3 27.7H392.5V29.5Z" fill="white"/>
<path d="M403.2 33V26.9H404L407.4 31.3V26.9H408.3V33H407.6L404.1 28.6V33H403.2Z" fill="white"/>
<path d="M414.7 33L417.4 26.9H418.3L421 33H420L419.3 31.5H416.4L415.7 33H414.7ZM416.7 30.6H418.9L417.8 28L416.7 30.6Z" fill="white"/>
<path d="M426.8 26.9H431.8V27.8H429.8V33H428.8V27.8H426.8V26.9Z" fill="white"/>
<path d="M438.2 33V26.9H439.2V33H438.2Z" fill="white"/>
<path d="M449 33.1C448.1 33.1 447.4 32.8 446.8 32.2C446.2 31.6 445.9 30.8 445.9 29.9C445.9 29 446.2 28.3 446.8 27.7C447.4 27.1 448.1 26.8 449 26.8C449.9 26.8 450.6 27.1 451.2 27.7C451.8 28.3 452.1 29 452.1 29.9C452.1 30.8 451.8 31.5 451.2 32.2C450.6 32.8 449.9 33.1 449 33.1ZM449 32.2C449.6 32.2 450.1 32 450.5 31.6C450.9 31.2 451.1 30.6 451.1 30C451.1 29.4 450.9 28.8 450.5 28.4C450.1 28 449.6 27.7 449 27.7C448.4 27.7 447.9 27.9 447.5 28.4C447.1 28.8 446.9 29.4 446.9 30C446.9 30.6 447.1 31.2 447.5 31.6C447.9 32 448.4 32.2 449 32.2Z" fill="white"/>
<path d="M458.7 33V26.9H459.5L462.9 31.3V26.9H463.8V33H463L459.5 28.6V33H458.7Z" fill="white"/>
<path d="M470.2 33L472.9 26.9H473.8L476.5 33H475.5L474.8 31.5H471.9L471.2 33H470.2ZM472.3 30.6H474.5L473.4 28L472.3 30.6Z" fill="white"/>
<path d="M482.8 33V26.9H483.8V32.1H487V33H482.8Z" fill="white"/>
<path d="M501 33V26.9H505.3V27.8H501.9V29.4H504.6V30.3H501.9V33H501Z" fill="white"/>
<path d="M511.7 33V26.9H516V27.8H512.6V29.3H515.4V30.2H512.6V32.1H516.1V33H511.7Z" fill="white"/>
<path d="M522.3 32.4V31.4C522.5 31.6 522.9 31.8 523.3 32C523.7 32.2 524.1 32.2 524.6 32.2C525.4 32.2 526 31.9 526 31.3C526 31.1 525.9 30.9 525.7 30.7C525.6 30.6 525.5 30.6 525.4 30.5C525.1 30.4 525 30.3 524.6 30.2H524.5C524.2 30.1 523.9 30 523.7 29.9C523.5 29.8 523.3 29.7 523.1 29.6C522.7 29.3 522.5 28.9 522.5 28.4C522.5 27.4 523.3 26.7 524.7 26.7C525.4 26.7 526.1 26.9 526.7 27.2V28.2C526.1 27.8 525.4 27.6 524.8 27.6C524 27.6 523.6 27.9 523.6 28.4C523.6 28.7 523.7 28.8 524 28.9C524.1 29 524.4 29.1 524.5 29.1L525.2 29.3C525.7 29.4 525.9 29.5 526.3 29.8C526.8 30.1 527.1 30.5 527.2 31.2C527.2 31.8 527 32.2 526.5 32.5C526 32.8 525.5 33 524.8 33C523.7 33.1 522.9 32.9 522.3 32.4Z" fill="white"/>
<path d="M533 26.9H538V27.8H536V33H535V27.8H533V26.9Z" fill="white"/>
<path d="M544.5 33V26.9H545.5V33H544.5Z" fill="white"/>
<path d="M554.4 33L551.8 26.9H552.9L554.9 31.7L556.9 26.9H557.9L555.3 33H554.4Z" fill="white"/>
<path d="M563.7 33L566.4 26.9H567.3L570 33H569L568.3 31.5H565.4L564.7 33H563.7ZM565.7 30.6H567.9L566.8 28L565.7 30.6Z" fill="white"/>
<path d="M576.2 33V26.9H577.2V32.1H580.4V33H576.2Z" fill="white"/>
</svg>
